<?xml version="1.0" standalone="no"?>
<!DOCTYPE svg PUBLIC "-//W3C//DTD SVG 20010904//EN"
 "http://www.w3.org/TR/2001/REC-SVG-20010904/DTD/svg10.dtd">
<svg version="1.0" xmlns="http://www.w3.org/2000/svg"
 width="300.000000pt" height="300.000000pt" viewBox="0 0 300.000000 300.000000"
 preserveAspectRatio="xMidYMid meet">
<metadata>
Created by potrace 1.14, written by Peter Selinger 2001-2017
</metadata>
<g transform="translate(0.000000,300.000000) scale(0.100000,-0.100000)"
fill="#000000" stroke="none">
<path d="M1245 2974 c-253 -47 -468 -142 -662 -294 -273 -212 -460 -505 -541
-843 -25 -104 -27 -128 -27 -337 0 -209 2 -233 27 -337 133 -559 562 -988
1121 -1121 104 -25 128 -27 337 -27 209 0 233 2 337 27 559 133 988 562 1121
1121 25 104 27 128 27 337 0 209 -2 233 -27 337 -47 196 -135 389 -249 544
-27 37 -49 69 -49 72 0 2 26 21 58 41 57 37 57 37 135 204 42 92 77 173 77
180 0 15 -113 16 -282 2 l-117 -10 -44 -47 c-24 -27 -57 -63 -74 -82 l-30 -34
-59 40 c-144 97 -307 168 -482 210 -93 22 -135 26 -312 29 -152 2 -226 -1
-285 -12z m1635 -119 c0 -2 -5 -16 -12 -30 -12 -28 -26 -28 -42 -2 -8 13 -7
20 4 27 15 10 50 14 50 5z m-90 -35 c7 -17 21 -35 31 -41 17 -9 15 -16 -28
-104 -26 -52 -50 -95 -53 -95 -3 0 -30 24 -59 53 -53 52 -81 97 -106 168 l-14
38 32 4 c18 2 66 5 108 5 76 2 77 2 89 -28z m-183 -162 c15 -23 47 -55 70 -72
41 -30 48 -46 26 -53 -17 -6 -122 96 -145 140 -35 69 -48 113 -35 126 7 7 17
-5 33 -45 12 -31 35 -74 51 -96z m-2 -92 l53 -54 -114 -72 c-125 -78 -282
-192 -382 -277 -43 -36 -72 -53 -91 -53 -35 0 -95 39 -99 65 -2 14 31 54 104
130 59 60 174 188 257 283 l151 172 34 -70 c21 -44 54 -91 87 -124z m-405 -76
c-54 -58 -97 -97 -102 -92 -14 14 1 39 33 52 28 12 74 58 112 114 10 14 25 26
34 26 9 0 -24 -42 -77 -100z m-1050 70 c229 -24 500 -87 710 -164 166 -62 162
-58 124 -97 l-31 -31 -199 65 c-110 35 -254 77 -321 92 -121 28 -149 45 -72
45 76 0 38 17 -88 40 -71 12 -191 25 -268 27 -260 10 -322 -27 -211 -125 271
-238 1408 -538 1589 -419 47 30 33 59 -67 145 -27 23 -35 37 -28 44 7 7 34 -4
89 -37 93 -56 123 -82 123 -107 0 -22 -111 -339 -184 -526 -77 -196 -197 -474
-257 -594 -61 -123 -224 -402 -244 -418 -22 -18 -226 -33 -375 -26 -242 10
-498 70 -671 156 -178 89 -391 272 -405 348 -8 42 21 248 71 498 66 330 227
1049 238 1063 6 7 20 17 32 21 28 12 331 12 445 0z m1365 -1090 c169 -80 244
-240 201 -425 -46 -195 -181 -355 -346 -411 -108 -36 -301 -12 -336 42 -31 47
4 128 66 154 26 11 47 11 115 0 110 -17 153 -2 224 76 75 82 102 195 66 281
-23 54 -43 72 -112 104 -69 31 -80 49 -70 122 12 88 83 109 192 57z"/>
<path d="M877 2014 c-13 -13 -7 -51 9 -65 23 -19 49 1 49 37 0 24 -5 30 -25
32 -14 2 -29 0 -33 -4z"/>
<path d="M1756 1794 c-19 -18 -21 -45 -4 -62 39 -39 100 17 63 58 -22 24 -38
25 -59 4z"/>
<path d="M1030 1776 c0 -7 7 -19 15 -26 8 -7 15 -23 15 -37 0 -63 61 -147 134
-185 49 -25 138 -34 193 -19 81 22 177 118 171 170 -3 25 -8 26 -248 68 -276
48 -280 48 -280 29z m478 -101 c10 -4 10 -11 -2 -34 -20 -38 -67 -76 -112 -91
-41 -14 -149 -9 -165 7 -28 28 61 117 133 132 29 6 109 -2 146 -14z"/>
</g>
</svg>
